<svg width="139" height="28" viewBox="0 0 139 28" fill="none" xmlns="http://www.w3.org/2000/svg">
<path d="M22.208 0.84V26.612H16.36L5.446 9.442V26.612H0.278V0.84H6.126L17.04 18.044V0.84H22.208ZM38.2321 26.85C31.7721 26.85 27.9301 22.464 27.9301 16.208V0.84H33.0981V16.14C33.0981 19.744 34.6621 22.022 38.2321 22.022C41.8021 22.022 43.3661 19.744 43.3661 16.14V0.84H48.5341V16.208C48.5341 22.464 44.6921 26.85 38.2321 26.85ZM62.4449 22.124C67.2389 22.124 70.2309 18.894 70.2309 13.726C70.2309 8.558 67.2389 5.328 62.4449 5.328L59.3849 5.362V22.09L62.4449 22.124ZM62.5469 0.84C70.0949 0.84 75.3989 6.144 75.3989 13.726C75.3989 21.308 70.0949 26.612 62.5469 26.612H54.2169V0.84H62.5469ZM80.2056 0.84H85.3736V26.612H80.2056V0.84ZM110.651 17.058C110.991 16.072 111.195 14.78 111.195 13.76C111.195 8.422 108.169 5.09 103.307 5.09C98.4453 5.09 95.4193 8.422 95.4193 13.76C95.4193 19.064 98.4453 22.396 103.307 22.396C105.075 22.396 106.741 21.954 107.625 21.274L104.055 17.364L107.897 13.896L110.651 17.058ZM116.737 23.552L112.963 27.02L110.753 24.538C108.883 25.932 105.823 26.884 103.307 26.884C95.6573 26.884 90.2513 21.478 90.2513 13.76C90.2513 6.042 95.6573 0.601999 103.307 0.601999C110.957 0.601999 116.363 6.042 116.363 13.76C116.261 16.072 115.411 19.03 114.289 20.934L116.737 23.552ZM138.429 0.84V5.26H126.019V11.142H136.627V15.562H126.019V22.192H138.429V26.612H120.851V0.84H138.429Z" fill="#402E32"/>
<path d="M22.208 0.84H22.708V0.34H22.208V0.84ZM22.208 26.612V27.112H22.708V26.612H22.208ZM16.36 26.612L15.938 26.8802L16.0854 27.112H16.36V26.612ZM5.446 9.442L5.86797 9.17378L4.946 7.72333V9.442H5.446ZM5.446 26.612V27.112H5.946V26.612H5.446ZM0.278 26.612H-0.222V27.112H0.278V26.612ZM0.278 0.84V0.34H-0.222V0.84H0.278ZM6.126 0.84L6.54821 0.572156L6.40093 0.34H6.126V0.84ZM17.04 18.044L16.6178 18.3118L17.54 19.7655V18.044H17.04ZM17.04 0.84V0.34H16.54V0.84H17.04ZM21.708 0.84V26.612H22.708V0.84H21.708ZM22.208 26.112H16.36V27.112H22.208V26.112ZM16.782 26.3438L5.86797 9.17378L5.02403 9.71022L15.938 26.8802L16.782 26.3438ZM4.946 9.442V26.612H5.946V9.442H4.946ZM5.446 26.112H0.278V27.112H5.446V26.112ZM0.778 26.612V0.84H-0.222V26.612H0.778ZM0.278 1.34H6.126V0.34H0.278V1.34ZM5.70379 1.10784L16.6178 18.3118L17.4622 17.7762L6.54821 0.572156L5.70379 1.10784ZM17.54 18.044V0.84H16.54V18.044H17.54ZM17.04 1.34H22.208V0.34H17.04V1.34ZM27.9301 0.84V0.34H27.4301V0.84H27.9301ZM33.0981 0.84H33.5981V0.34H33.0981V0.84ZM43.3661 0.84V0.34H42.8661V0.84H43.3661ZM48.5341 0.84H49.0341V0.34H48.5341V0.84ZM38.2321 26.35C35.1203 26.35 32.6835 25.2969 31.0227 23.5323C29.3582 21.7638 28.4301 19.2344 28.4301 16.208H27.4301C27.4301 19.4376 28.423 22.2292 30.2945 24.2177C32.1697 26.2101 34.8839 27.35 38.2321 27.35V26.35ZM28.4301 16.208V0.84H27.4301V16.208H28.4301ZM27.9301 1.34H33.0981V0.34H27.9301V1.34ZM32.5981 0.84V16.14H33.5981V0.84H32.5981ZM32.5981 16.14C32.5981 18.0035 33.001 19.6059 33.9399 20.7497C34.8932 21.9111 36.3342 22.522 38.2321 22.522V21.522C36.56 21.522 35.434 20.9939 34.7128 20.1153C33.9772 19.2191 33.5981 17.8805 33.5981 16.14H32.5981ZM38.2321 22.522C40.13 22.522 41.571 21.9111 42.5243 20.7497C43.4632 19.6059 43.8661 18.0035 43.8661 16.14H42.8661C42.8661 17.8805 42.487 19.2191 41.7514 20.1153C41.0302 20.9939 39.9042 21.522 38.2321 21.522V22.522ZM43.8661 16.14V0.84H42.8661V16.14H43.8661ZM43.3661 1.34H48.5341V0.34H43.3661V1.34ZM48.0341 0.84V16.208H49.0341V0.84H48.0341ZM48.0341 16.208C48.0341 19.2344 47.106 21.7638 45.4415 23.5323C43.7807 25.2969 41.3439 26.35 38.2321 26.35V27.35C41.5803 27.35 44.2945 26.2101 46.1697 24.2177C48.0412 22.2292 49.0341 19.4376 49.0341 16.208H48.0341ZM62.4449 22.124L62.4393 22.624H62.4449V22.124ZM62.4449 5.328V4.82797L62.4393 4.82803L62.4449 5.328ZM59.3849 5.362L59.3793 4.86203L58.8849 4.86752V5.362H59.3849ZM59.3849 22.09H58.8849V22.5845L59.3793 22.59L59.3849 22.09ZM54.2169 26.612H53.7169V27.112H54.2169V26.612ZM54.2169 0.84V0.34H53.7169V0.84H54.2169ZM62.4449 22.624C64.9588 22.624 67.0463 21.7737 68.5023 20.2029C69.9543 18.6364 70.7309 16.4049 70.7309 13.726H69.7309C69.7309 16.2151 69.0114 18.1826 67.7689 19.5231C66.5304 20.8593 64.725 21.624 62.4449 21.624V22.624ZM70.7309 13.726C70.7309 11.0471 69.9543 8.81561 68.5023 7.2491C67.0463 5.67826 64.9588 4.828 62.4449 4.828V5.828C64.725 5.828 66.5304 6.59274 67.7689 7.92889C69.0114 9.26938 69.7309 11.2369 69.7309 13.726H70.7309ZM62.4393 4.82803L59.3793 4.86203L59.3904 5.86197L62.4504 5.82797L62.4393 4.82803ZM58.8849 5.362V22.09H59.8849V5.362H58.8849ZM59.3793 22.59L62.4393 22.624L62.4504 21.624L59.3904 21.59L59.3793 22.59ZM62.5469 1.34C66.2006 1.34 69.2823 2.62168 71.4495 4.79297C73.6168 6.9643 74.8989 10.0547 74.8989 13.726H75.8989C75.8989 9.81534 74.529 6.4627 72.1573 4.08653C69.7855 1.71032 66.4412 0.34 62.5469 0.34V1.34ZM74.8989 13.726C74.8989 17.3973 73.6168 20.4877 71.4495 22.659C69.2823 24.8303 66.2006 26.112 62.5469 26.112V27.112C66.4412 27.112 69.7855 25.7417 72.1573 23.3655C74.529 20.9893 75.8989 17.6367 75.8989 13.726H74.8989ZM62.5469 26.112H54.2169V27.112H62.5469V26.112ZM54.7169 26.612V0.84H53.7169V26.612H54.7169ZM54.2169 1.34H62.5469V0.34H54.2169V1.34ZM80.2056 0.84V0.34H79.7056V0.84H80.2056ZM85.3736 0.84H85.8736V0.34H85.3736V0.84ZM85.3736 26.612V27.112H85.8736V26.612H85.3736ZM80.2056 26.612H79.7056V27.112H80.2056V26.612ZM80.2056 1.34H85.3736V0.34H80.2056V1.34ZM84.8736 0.84V26.612H85.8736V0.84H84.8736ZM85.3736 26.112H80.2056V27.112H85.3736V26.112ZM80.7056 26.612V0.84H79.7056V26.612H80.7056ZM110.651 17.058L110.274 17.3864L110.842 18.0384L111.124 17.221L110.651 17.058ZM107.625 21.274L107.93 21.6703L108.361 21.3386L107.995 20.9369L107.625 21.274ZM104.055 17.364L103.72 16.9928L103.347 17.3298L103.686 17.7011L104.055 17.364ZM107.897 13.896L108.274 13.5676L107.94 13.1838L107.562 13.5248L107.897 13.896ZM116.737 23.552L117.076 23.9202L117.447 23.5789L117.103 23.2105L116.737 23.552ZM112.963 27.02L112.59 27.3525L112.928 27.7318L113.302 27.3882L112.963 27.02ZM110.753 24.538L111.127 24.2055L110.822 23.8632L110.454 24.1371L110.753 24.538ZM116.363 13.76L116.863 13.782L116.863 13.771V13.76H116.363ZM114.289 20.934L113.859 20.6802L113.669 21.0023L113.924 21.2755L114.289 20.934ZM111.124 17.221C111.483 16.1797 111.695 14.8324 111.695 13.76H110.695C110.695 14.7276 110.5 15.9643 110.179 16.895L111.124 17.221ZM111.695 13.76C111.695 10.9988 110.912 8.7005 109.444 7.08686C107.972 5.46774 105.858 4.59 103.307 4.59V5.59C105.619 5.59 107.448 6.37825 108.705 7.75964C109.966 9.1465 110.695 11.1832 110.695 13.76H111.695ZM103.307 4.59C100.757 4.59 98.6425 5.46774 97.1701 7.08686C95.7028 8.7005 94.9193 10.9988 94.9193 13.76H95.9193C95.9193 11.1832 96.6488 9.1465 97.91 7.75964C99.1661 6.37825 100.996 5.59 103.307 5.59V4.59ZM94.9193 13.76C94.9193 16.5049 95.7032 18.7948 97.1706 20.4039C98.6428 22.0183 100.757 22.896 103.307 22.896V21.896C100.996 21.896 99.1658 21.1077 97.9095 19.7301C96.6484 18.3472 95.9193 16.3191 95.9193 13.76H94.9193ZM103.307 22.896C105.129 22.896 106.923 22.4452 107.93 21.6703L107.32 20.8777C106.56 21.4628 105.021 21.896 103.307 21.896V22.896ZM107.995 20.9369L104.425 17.0269L103.686 17.7011L107.256 21.6111L107.995 20.9369ZM104.39 17.7352L108.232 14.2672L107.562 13.5248L103.72 16.9928L104.39 17.7352ZM107.52 14.2244L110.274 17.3864L111.028 16.7296L108.274 13.5676L107.52 14.2244ZM116.399 23.1838L112.625 26.6518L113.302 27.3882L117.076 23.9202L116.399 23.1838ZM113.337 26.6875L111.127 24.2055L110.38 24.8705L112.59 27.3525L113.337 26.6875ZM110.454 24.1371C108.68 25.4602 105.727 26.384 103.307 26.384V27.384C105.919 27.384 109.087 26.4038 111.052 24.9389L110.454 24.1371ZM103.307 26.384C99.6033 26.384 96.4706 25.0773 94.2648 22.8633C92.0588 20.6493 90.7513 17.4992 90.7513 13.76H89.7513C89.7513 17.7388 91.1468 21.1507 93.5563 23.5692C95.966 25.9877 99.3613 27.384 103.307 27.384V26.384ZM90.7513 13.76C90.7513 10.0207 92.059 6.8617 94.2654 4.639C96.4716 2.41654 99.6042 1.102 103.307 1.102V0.101999C99.3604 0.101999 95.965 1.50746 93.5557 3.9345C91.1466 6.3613 89.7513 9.78135 89.7513 13.76H90.7513ZM103.307 1.102C107.01 1.102 110.143 2.41654 112.349 4.639C114.556 6.8617 115.863 10.0207 115.863 13.76H116.863C116.863 9.78135 115.468 6.3613 113.059 3.9345C110.65 1.50746 107.254 0.101999 103.307 0.101999V1.102ZM115.864 13.738C115.765 15.9733 114.936 18.8509 113.859 20.6802L114.72 21.1878C115.886 19.2091 116.757 16.1707 116.863 13.782L115.864 13.738ZM113.924 21.2755L116.372 23.8935L117.103 23.2105L114.655 20.5925L113.924 21.2755ZM138.429 0.84H138.929V0.34H138.429V0.84ZM138.429 5.26V5.76H138.929V5.26H138.429ZM126.019 5.26V4.76H125.519V5.26H126.019ZM126.019 11.142H125.519V11.642H126.019V11.142ZM136.627 11.142H137.127V10.642H136.627V11.142ZM136.627 15.562V16.062H137.127V15.562H136.627ZM126.019 15.562V15.062H125.519V15.562H126.019ZM126.019 22.192H125.519V22.692H126.019V22.192ZM138.429 22.192H138.929V21.692H138.429V22.192ZM138.429 26.612V27.112H138.929V26.612H138.429ZM120.851 26.612H120.351V27.112H120.851V26.612ZM120.851 0.84V0.34H120.351V0.84H120.851ZM137.929 0.84V5.26H138.929V0.84H137.929ZM138.429 4.76H126.019V5.76H138.429V4.76ZM125.519 5.26V11.142H126.519V5.26H125.519ZM126.019 11.642H136.627V10.642H126.019V11.642ZM136.127 11.142V15.562H137.127V11.142H136.127ZM136.627 15.062H126.019V16.062H136.627V15.062ZM125.519 15.562V22.192H126.519V15.562H125.519ZM126.019 22.692H138.429V21.692H126.019V22.692ZM137.929 22.192V26.612H138.929V22.192H137.929ZM138.429 26.112H120.851V27.112H138.429V26.112ZM121.351 26.612V0.84H120.351V26.612H121.351ZM120.851 1.34H138.429V0.34H120.851V1.34Z" fill="#402E32"/>
</svg>
